<svg version="1.1" id="Layer_Infinity" xmlns="http://www.w3.org/2000/svg" xmlns:xlink="http://www.w3.org/1999/xlink" x="0px" y="0px" width="95px" height="95px" viewBox="0 0 95 95" style="enable-background:new 0 0 95 95;" xml:space="preserve" class="eltdf-svg-separator">
<path class="st0" d="M29,56.5c0,0-6.3,0.5-10.2,0.4c-3.7-0.1-8.8-0.8-11.5-0.4c-3,0.5-6.1,2.7-6.2,7.3c-0.1,3.3,2.8,8.4,8.8,9.8&#10;&#9;c7.6,1.8,14.5-0.4,17.9-1.8c9.1-3.6,16.9-14.1,21.2-19.9s10.9-12.7,13.1-14.5c2.1-1.7,8.1-6,8.7-6.5"/>
<path class="st1" d="M7.3,56.5c0,0,1.8-5.7,11.2-5c8,0.6,10.9,5,10.9,5s-6.6,4.6-11.5,4.7C9,61.3,7.3,56.5,7.3,56.5z"/>
<path class="st3" d="M70.9,29.8c0.4-0.4,7.6-7.7,8.5-8.4c0.4-0.3,1.6-0.7,2.2-0.7c1.4,0,11,2.2,11.2,2.2s1.6,1.1,1,2.1&#10;&#9;c-0.6,1-6.3,6.2-8,7.6c-0.7,0.6-1.4,0.8-2.6,0.8c-1.6,0-11.5-1.5-11.8-1.8C71.1,31.4,70.3,30.5,70.9,29.8z"/>
<path class="st2" d="M55.7,43.9c0,0,6.2-2.8,11.4-2.8c4.9,0,9.8,2.1,12.1,5.7c2.2,3.5,4.2,9.6,0.7,14.4c-2.7,3.8-7.7,6.4-13.6,5.1&#10;&#9;c-2.5-0.6-5.3-3.7-5-7.1c0.3-2.7,2.1-4.8,4.1-4.6c2.5,0.2,3.1,1.2,3.3,2.4c0.2,1.8-0.3,2.7-1.5,3"/>
</svg>