<svg version="1.1" id="Layer_1" xmlns="http://www.w3.org/2000/svg" xmlns:xlink="http://www.w3.org/1999/xlink" x="0px" y="0px" width="55px" height="55px" viewBox="0 0 55 55" style="enable-background:new 0 0 55 55;" xml:space="preserve">
					<g>
						<g>
							<path class="infinity" d="M46,29.9c1.1,0.9,1.8,2.3,1.1,3.7c0.9-0.7,1.8-1.4,2.7-2.1c-1.7,0.7-4.6-0.1-6.4-0.5c-3.4-0.7-6.8-1.6-10-2.8&#10;&#9;&#9;&#9;&#9;&#9;&#9;&#9;&#9;c-7.1-2.7-13.8-6.7-21.3-8.7c-3.1-0.8-5.9-1.2-8.6,0.7c-2.1,1.4-3.9,3.1-3,5.8c1.9,5.3,9.7,8.4,14.9,8.3c4,0,6.9-1,9.8-3.6&#10;&#9;&#9;&#9;&#9;&#9;&#9;&#9;&#9;c1.7-1.5,2.8-3.2,4-5c2.6-3.8,4.3-4.6,8.8-3.9c3,0.5,6.1,1.4,8.8,2.8c0.6,0.3,6.5,3.8,5.2,5c-1,1,1.8-1,2.2-1.4&#10;&#9;&#9;&#9;&#9;&#9;&#9;&#9;&#9;c3.4-3.3-8.2-7.4-9.8-7.8c-3.8-1.1-7.8-1.8-11.3,0.4c-3.4,2.1-4.9,5.4-7.5,8.3c-5.5,6.3-17.4,2.3-21.5-4c-0.6-1-0.8-1.8-1.1-2.9&#10;&#9;&#9;&#9;&#9;&#9;&#9;&#9;&#9;c0.7-1.4,0.6-1.7-0.3-0.9c0.5-0.2,1-0.3,1.5-0.3c3.2,0.3,6,0.9,9,2c7.3,2.7,14.2,6.7,21.7,8.9c3.3,0.9,9,3.1,12.4,1.8&#10;&#9;&#9;&#9;&#9;&#9;&#9;&#9;&#9;c2.6-1,4.2-3.9,1.5-5.9C48.4,27.4,46,30,46,29.9L46,29.9z"/>
						</g>
					</g>
				</svg>